# xmcd
#
# Track frame offsets:
#   150
#   12913
#   24247
#   37637
#   50825
#   66583
#   78123
#   90729
#   104755
#   119087
#   135948
#   148368
#   162402
#   176086
#   188294
#   204219
#   221709
#   238098
#
# Disc length: 3307 seconds
#
# Revision: 0
# Processed by: cddbd v1.5.2PL0 Copyright (c) Steve Scherf et al.
# Submitted via: uFREEDB ActiveX Control 1.5
#
DISCID=fc0ce912
DTITLE=teodoro e sampaio - quem vai mandar no mundo é a mulher
DYEAR=2008
DGENRE=Country
TTITLE0=chora nenen
TTITLE1=lambida do boi
TTITLE2=o bocão
TTITLE3=afogar o ganso
TTITLE4=quem vai mandar no mundo é a mulher
TTITLE5=quarto de milha
TTITLE6=mulher moderna
TTITLE7=tô na balada
TTITLE8=a mulher do meu vizinho
TTITLE9=eu e a lua
TTITLE10=parente do lima
TTITLE11=coração á diesel
TTITLE12=loira não é burra
TTITLE13=sobra mais mulher pra mim
TTITLE14=tapete da sala
TTITLE15=não conte pra ninguém
TTITLE16=a turna do boi
TTITLE17=onde ce tá?
EXTD=
EXTT0=
EXTT1=
EXTT2=
EXTT3=
EXTT4=
EXTT5=
EXTT6=
EXTT7=
EXTT8=
EXTT9=
EXTT10=
EXTT11=
EXTT12=
EXTT13=
EXTT14=
EXTT15=
EXTT16=
EXTT17=
PLAYORDER=
